<?xml version="1.0" encoding="utf-8"?>
<!-- Generator: Adobe Illustrator 23.1.1, SVG Export Plug-In . SVG Version: 6.00 Build 0)  -->
<svg version="1.1" id="Capa_1" xmlns="http://www.w3.org/2000/svg" xmlns:xlink="http://www.w3.org/1999/xlink" x="0px" y="0px"
	 viewBox="0 0 200 60" style="enable-background:new 0 0 200 60;" xml:space="preserve">
<style type="text/css">
	.st0{fill-rule:evenodd;clip-rule:evenodd;fill:#ADADAD;}
</style>
<path class="st0" d="M40.3,2.8H53c3,0,6,0.2,9,0.7c2.9,0.5,5.7,1.7,8.3,3.8c2.4,2.1,4.3,4.7,5.7,7.9c1.4,3.2,2.1,6.4,2.3,9.8
	c0.1,0.2,0.1,0.5,0.1,0.7V27c-0.1,3.5-0.8,6.9-2.2,10.2c-1.4,3.3-3.3,5.9-6,8c-2.3,1.7-4.8,2.8-7.5,3.3c-2.6,0.5-5.4,0.8-8.1,0.9
	H40.3V2.8z M49.6,41.1c0.3,0,0.6,0,1,0c0.4,0,0.8,0,1.2,0h0.8c0.3,0.1,0.5,0.1,0.8,0.1h0.8c0.5,0,0.9,0,1.4-0.1
	c0.5,0,0.9-0.1,1.4-0.1c1.4-0.1,2.7-0.4,4-0.7c1.3-0.4,2.4-1,3.4-1.8c1.5-1.3,2.6-3,3.4-5.1s1.2-4.4,1.2-6.7v-0.2v-0.3v-0.3v-0.3
	c0-2.3-0.4-4.5-1.2-6.6c-0.7-2.1-1.8-3.9-3.3-5.2c-1-1-2.3-1.7-3.6-2c-1.4-0.4-2.8-0.6-4.2-0.6c-0.3-0.1-0.6-0.1-1-0.1h-6V41.1
	L49.6,41.1z M104.4,48.7l-2.8-3.3c-1.2,1.1-2.7,2.1-4.2,2.8c-1.5,0.7-3.2,1.1-4.8,1.3c-0.2,0-0.3,0.1-0.5,0.1h-0.5
	c-0.4,0-0.7,0-1.1-0.1c-0.4,0-0.7-0.1-1.1-0.1c-0.7-0.1-1.4-0.3-2.1-0.6c-0.7-0.3-1.4-0.6-2-1c-1.2-0.8-2.1-1.8-2.8-3.1
	c-0.7-1.3-1.1-2.6-1.3-4c0-0.2,0-0.3,0-0.5v-0.4v-0.4c0-0.1,0-0.3,0-0.4c0-0.1,0-0.1,0-0.1c0-0.1,0-0.1,0-0.2c0-0.1,0-0.1,0-0.3
	c0-0.1,0-0.2,0-0.2c0.4-2,1.2-3.7,2.6-5c1.4-1.3,2.8-2.5,4.4-3.5c-1-1-1.8-2.2-2.5-3.5c-0.7-1.2-1-2.5-1-3.8c0-0.3,0-0.5,0.1-0.8
	c0-0.3,0.1-0.5,0.1-0.8c0.1-0.2,0.1-0.4,0.1-0.5c0.1-0.2,0.1-0.4,0.1-0.5c0.6-1.8,1.7-3,3.3-3.9c1.6-0.8,3.3-1.2,5.1-1.2
	c2.3,0,4.4,0.6,6.2,1.9c1.9,1.2,2.8,3,2.8,5.4v0.6c-0.1,1.5-0.7,2.8-1.7,3.9c-0.9,1.1-2,2-3.1,2.9c-0.3,0.1-0.5,0.3-0.7,0.5
	c-0.2,0.2-0.5,0.3-0.7,0.5l5.7,6.7c0.3-0.3,0.6-0.6,0.9-0.8c0.3-0.3,0.5-0.6,0.8-0.9c0.6-0.6,1.2-1.2,1.7-1.7
	c0.6-0.6,1.1-1.2,1.6-1.8l3.8,4c-0.4,0.4-0.9,0.9-1.3,1.4c-0.4,0.5-0.9,0.9-1.3,1.4c-0.5,0.4-0.9,0.9-1.4,1.4l-1.3,1.4l6.2,7.5
	L104.4,48.7L104.4,48.7L104.4,48.7z M88.2,41.7c0.4,0.5,0.7,0.9,1.1,1.2c0.4,0.3,0.7,0.6,1.1,0.8c0.4,0.2,0.7,0.4,1.1,0.4
	c0.4,0.1,0.7,0.1,1.1,0.1c0.7,0,1.4-0.2,2.1-0.4c0.6-0.3,1.2-0.7,1.8-1.1c0.5-0.3,1-0.8,1.6-1.4l-6.4-7.6c-0.1,0.1-0.3,0.2-0.5,0.3
	c-0.1,0.1-0.3,0.2-0.4,0.3c-0.7,0.6-1.3,1.3-1.9,2c-0.6,0.7-1,1.5-1.3,2.3c-0.1,0.2-0.1,0.4-0.1,0.6c-0.1,0.2-0.1,0.4-0.1,0.6
	c0,0.4,0.1,0.7,0.2,1C87.8,41.1,88,41.4,88.2,41.7L88.2,41.7z M93.3,27.1c0.1,0,0.1-0.1,0.1-0.1c0.1,0,0.1,0,0.2-0.1
	c0,0,0.1-0.1,0.1-0.1c0,0,0.1,0,0.1,0c0.7-0.5,1.4-1,2-1.6c0.6-0.6,1-1.3,1.2-2.2v-0.6c0-0.9-0.3-1.7-1-2.3c-0.6-0.6-1.3-0.9-2.1-1
	h-0.7c-0.6,0.1-1.1,0.3-1.6,0.7c-0.5,0.4-0.8,1-0.9,1.8c0,0,0,0.1,0,0.1c0,0.1,0,0.1,0,0.2c0,0,0,0.1,0,0.1c0,0.1,0,0.1,0,0.2
	c0,0.7,0.2,1.4,0.6,2c0.4,0.6,0.8,1.2,1.3,1.8c0.2,0.2,0.3,0.3,0.5,0.5L93.3,27.1L93.3,27.1z M159.7,24.1v1.5
	c0,4.2-0.7,8.2-2.1,11.8s-4.1,6.7-8.2,8.9c-1.3,0.8-2.7,1.5-4.3,1.9c-1.5,0.4-3.1,0.8-4.6,1c-0.6,0-1.1,0.1-1.6,0.1
	c-0.5,0-1,0-1.5,0h-0.9c-0.3,0-0.6,0-0.9-0.1c-3.8-0.2-7.4-1.3-10.9-3.1c-3.5-1.8-6.3-4.2-8.5-7.3c-1.1-1.6-1.9-3.4-2.6-5.3
	c-0.6-1.8-1.1-3.7-1.3-5.7c0-0.4-0.1-0.8-0.1-1.2c0-0.4,0-0.8,0-1.3c0-4.5,1.2-8.7,3.5-12.8c2.3-4.1,5.6-7.1,9.9-9.2
	c0.9-0.4,1.8-0.8,2.8-1.1c1-0.3,1.9-0.6,2.9-0.8c0.9-0.2,1.9-0.3,2.8-0.4c1-0.1,1.9-0.1,2.8-0.1h0.7c3.7,0.1,7.2,1,10.7,2.6
	c3.4,1.6,6.4,3.9,8.9,6.8l-6.8,4.9c-1.9-1.8-3.8-3.2-5.9-4.2c-2.1-1-4.3-1.5-6.6-1.5c-0.8,0-1.6,0.1-2.3,0.1
	c-0.8,0.1-1.7,0.3-2.5,0.5c-3.5,1.1-6,3.1-7.8,6c-1.7,3-2.6,6-2.6,9.4c0,0.2,0,0.5,0,0.8c0,0.3,0.1,0.5,0.1,0.8c0,0.1,0,0.3,0.1,0.4
	c0,0.1,0,0.3,0,0.4c0.1,0.1,0.1,0.2,0.1,0.4c0,0.1,0,0.3,0,0.4c0.6,3.6,2.2,6.5,4.7,8.6c2.5,2.1,5.3,3.3,8.2,3.7
	c0.4,0.1,0.8,0.2,1.3,0.2c0.4,0,0.9,0,1.3,0c2.8,0,5.3-0.8,7.5-2.3c2.2-1.5,3.3-3.7,3.3-6.5l0.1-0.3h-11.5v-8.1H159.7L159.7,24.1z
	 M72.8,53.7h1.8c1.2,0,2.3,1.1,2.3,2.5c0,1.4-1,2.4-2.3,2.5h-1.8V53.7z M73.5,54.3v3.8h0.8c1.1,0,1.7-0.9,1.7-1.9
	c0-1-0.6-1.7-1.5-1.9L73.5,54.3z M79.8,53.6c1.5,0,2.7,1.2,2.7,2.6s-1.2,2.6-2.7,2.6c-1.5,0-2.7-1.2-2.7-2.6S78.3,53.6,79.8,53.6z
	 M79.8,54.2c1.1,0,2,0.9,2,2c0,1.1-0.9,1.9-2,1.9c-1.1,0-2-0.9-2-1.9C77.9,55.1,78.7,54.2,79.8,54.2z M82.8,53.7h0.7v4.4h1.4v0.6
	h-2.1V53.7L82.8,53.7z M87.3,53.6c0.6,0,1.1,0.2,1.5,0.4v0.9c-0.4-0.5-0.9-0.7-1.5-0.7c-1.1,0-2,0.9-2,2c0,1.1,0.9,2,2,2
	c0.6,0,1.2-0.3,1.5-0.7v0.9c-0.5,0.3-1,0.4-1.5,0.4c-1.5,0-2.7-1.2-2.7-2.6S85.8,53.6,87.3,53.6z M89.8,58.1h1.8v0.6h-2.5v-5h2.5
	v0.6h-1.8v1.5h1.8v0.6h-1.8V58.1L89.8,58.1z M94.4,58.3c-0.1,0.1-0.2,0.1-0.3,0.2c-0.1,0.1-0.2,0.1-0.3,0.1c0,0-0.1,0-0.1,0h-0.1
	c-0.1,0-0.1,0-0.2,0c-0.1,0-0.2-0.1-0.2-0.1c-0.1-0.1-0.1-0.1-0.2-0.2L92.9,58v0v0v0v-0.1h0v0v0c0-0.1,0.1-0.3,0.2-0.4l0.3-0.3
	L93.3,57c-0.1-0.1-0.1-0.2-0.1-0.3v0v-0.1v0c0,0,0,0,0,0c0-0.1,0.1-0.2,0.2-0.3c0.1-0.1,0.2-0.1,0.3-0.1h0.1c0.1,0,0.3,0.1,0.4,0.1
	c0.1,0.1,0.1,0.2,0.1,0.4c0,0.1,0,0.3-0.1,0.3c-0.1,0.1-0.2,0.2-0.3,0.3l0.5,0.6c0-0.1,0.1-0.1,0.1-0.2c0.1-0.1,0.1-0.1,0.1-0.2
	l0.2,0.2c0,0.1-0.1,0.1-0.1,0.2c0,0.1-0.1,0.1-0.1,0.2l0,0c0,0,0,0,0,0l0.4,0.4h-0.3L94.4,58.3L94.4,58.3z M93.7,58.4
	c0.1,0,0.2,0,0.3-0.1c0.1-0.1,0.1-0.1,0.2-0.2h0l0,0l-0.6-0.7c0,0,0,0,0,0l0,0c-0.1,0-0.1,0.1-0.1,0.1c-0.1,0.1-0.1,0.1-0.1,0.1
	c0,0,0,0,0,0.1c0,0,0,0.1,0,0.1c0,0,0,0.1,0,0.1V58c0,0.1,0,0.2,0.1,0.3C93.4,58.4,93.5,58.4,93.7,58.4L93.7,58.4L93.7,58.4z
	 M93.5,56.6L93.5,56.6c0,0.1,0,0.2,0,0.2c0,0.1,0.1,0.1,0.1,0.1l0.1,0.1l0,0h0c0,0,0,0,0,0c0.1,0,0.1-0.1,0.2-0.1
	c0.1-0.1,0.1-0.1,0.1-0.2v0v0c0-0.1,0-0.1-0.1-0.2c-0.1,0-0.1-0.1-0.2-0.1h0h0c-0.1,0-0.1,0-0.2,0.1C93.5,56.5,93.5,56.6,93.5,56.6
	L93.5,56.6z M98.9,53.5c0.9,0,1.8,0.5,2.4,1.2l-0.6,0.3c-0.4-0.6-1-0.9-1.7-0.9c-1.1,0-2,0.9-2,2c0,1.1,0.9,2,2,2
	c0.9,0,1.7-0.5,1.7-1.4h-1.6v-0.6h2.4v0c0,1.5-0.8,2.6-2.5,2.6s-2.8-1.2-2.8-2.6S97.4,53.5,98.9,53.5z M101,58.6l2.1-5h0.5l2.1,5
	h-0.8l-0.6-1.4h-1.9l-0.6,1.4H101L101,58.6z M102.7,56.6l0.7-1.8l0.6,1.8H102.7z M112.8,58.6l2-5h0.5l2.1,5h-0.8l-0.6-1.4h-1.9
	l-0.6,1.4H112.8z M114.4,56.6l0.7-1.8l0.7,1.8H114.4z M122.6,58.6l2.1-5h0.5l2.1,5h-0.8l-0.6-1.4H124l-0.6,1.4H122.6z M124.3,56.6
	l0.6-1.8l0.7,1.8H124.3L124.3,56.6z M107.4,54.3c0.5,0.1,0.7,0.3,0.7,0.8c0,0.5-0.3,0.7-0.8,0.7h-0.6v-1.5L107.4,54.3L107.4,54.3z
	 M107.5,56.3L107.5,56.3c0.4,0,1,0.1,1,0.9c0,0.6-0.6,0.8-1.1,0.8h0.1h-0.8v-1.7L107.5,56.3L107.5,56.3z M106.5,58.6h1.3
	c0.9,0,1.5-0.6,1.5-1.4c0-0.6-0.4-1.1-1-1.3c0.3-0.2,0.5-0.6,0.5-1c0-0.7-0.5-1.2-1.2-1.2c-0.4,0-0.8,0-1.2,0h0h-0.4v5L106.5,58.6
	L106.5,58.6L106.5,58.6z M111.2,54.3c0.5,0.1,0.6,0.3,0.7,0.8c0,0.5-0.3,0.7-0.8,0.7h-0.6v-1.5L111.2,54.3L111.2,54.3z M111.2,56.3
	L111.2,56.3c0.4,0,1,0.1,1,0.9c0,0.6-0.6,0.8-1.1,0.8h0.1h-0.8v-1.7L111.2,56.3L111.2,56.3z M110.2,58.6h1.3c0.9,0,1.5-0.6,1.5-1.4
	c0-0.6-0.4-1.1-1-1.3c0.3-0.2,0.5-0.6,0.5-1c0-0.7-0.5-1.2-1.2-1.2c-0.4,0-0.8,0-1.2,0h-0.4v5L110.2,58.6L110.2,58.6L110.2,58.6z
	 M117.7,53.7h0.5l3.5,3.7v-3.7h0.7v5h-0.5l-3.4-3.6v3.6h-0.7L117.7,53.7L117.7,53.7z"/>
</svg>
