<?xml version="1.0" encoding="utf-8"?>
<!-- Generator: Adobe Illustrator 23.1.1, SVG Export Plug-In . SVG Version: 6.00 Build 0)  -->
<svg version="1.1" id="Capa_1" xmlns="http://www.w3.org/2000/svg" xmlns:xlink="http://www.w3.org/1999/xlink" x="0px" y="0px"
	 viewBox="0 0 200 60" style="enable-background:new 0 0 200 60;" xml:space="preserve">
<style type="text/css">
	.st0{fill:#ADADAD;}
</style>
<g>
	<path class="st0" d="M39.6,36.2c0,2.3-0.4,4.4-1.3,6.5c-0.9,2.1-2.1,3.9-3.8,5.4c-1.4,1.3-3,2.3-4.9,2.9c-1.8,0.6-3.8,1-5.9,1
		c-2.1,0-4.1-0.3-5.9-1c-1.9-0.6-3.5-1.6-4.9-2.9c-1.6-1.5-2.9-3.2-3.8-5.3c-0.9-2.1-1.3-4.3-1.3-6.7c0-2.3,0.4-4.4,1.1-6.3
		c0.8-1.9,1.9-3.6,3.5-5.1c1.4-1.4,3.1-2.5,5.1-3.2c1.9-0.7,4-1.1,6.2-1.1c2.2,0,4.3,0.3,6.1,1c1.9,0.7,3.5,1.7,5,3.1
		c1.6,1.5,2.8,3.3,3.6,5.2C39.2,31.6,39.6,33.8,39.6,36.2z M30.7,36.3c0-1.4-0.2-2.8-0.6-4.1c-0.4-1.4-1.1-2.5-2-3.4
		c-0.5-0.5-1.2-1-2-1.2c-0.8-0.3-1.6-0.4-2.4-0.4c-1,0-1.8,0.2-2.5,0.5c-0.7,0.3-1.4,0.8-2.1,1.5c-0.8,0.8-1.4,1.9-1.8,3.2
		c-0.4,1.3-0.6,2.6-0.6,3.9c0,1.5,0.2,2.9,0.6,4.2c0.4,1.3,1.1,2.4,2.1,3.3c0.5,0.5,1.2,1,1.9,1.2s1.5,0.4,2.3,0.4
		c0.9,0,1.7-0.2,2.5-0.5c0.8-0.3,1.5-0.8,2-1.3c0.8-0.9,1.4-1.9,1.8-3.2C30.5,39,30.7,37.6,30.7,36.3z"/>
	<path class="st0" d="M67.9,27.8c-1.6,0.5-3.4,1.1-5.4,1.8c-2,0.7-4.6,1.8-7.8,3.3c0,0.5,0,1.4,0,2.7s0,2.6,0,3.9
		c0,2.1,0,4.4,0.1,6.9c0,2.6,0.1,4.1,0.1,4.6h-9c0-0.6,0-2.1,0-4.4s0-5.5,0-9.4c0-1.9,0-4.2,0-7.1c0-2.9,0-5.9-0.1-9h8.8l0,4.3
		l0.1,0c1.9-1.2,3.8-2.2,6-3.2c2.1-1,3.8-1.7,5-2L67.9,27.8z"/>
	<path class="st0" d="M100.5,35.7c0,3.1-0.8,5.8-2.3,8.1c-1.5,2.3-3.7,4-6.4,5.2c-2,0.9-4.2,1.5-6.8,1.8c-2.5,0.4-5.7,0.6-9.3,0.6
		c-1,0-1.9,0-2.5,0s-1.3,0-1.9,0c0-1.4,0-3.9,0-7.7c0-3.7,0-8.7,0-15c0-4.5,0-8.5,0-11.8s0-6.3-0.1-8.9h9l-0.1,13.2
		c3.1,0.1,5.7,0.4,7.7,0.9c2.1,0.5,3.9,1.2,5.5,2.2c2.3,1.2,4.1,2.8,5.3,4.7C99.9,31,100.5,33.2,100.5,35.7z M91.5,35.6
		c0-1.7-0.5-3.2-1.4-4.4c-0.9-1.2-2.1-2.1-3.6-2.7c-0.9-0.4-1.8-0.7-2.8-0.8c-1-0.2-2-0.2-3-0.2c-0.2,0-0.3,0-0.5,0s-0.3,0-0.4,0
		c0,0.4,0,1.5,0,3.5c0,2,0,3.7,0,5c0,2.2,0,3.9,0,5s0,2.4,0,3.6c1.5,0,2.9-0.1,4.2-0.4c1.3-0.2,2.4-0.6,3.3-1.1
		c1.4-0.8,2.5-1.8,3.2-3C91.2,38.9,91.5,37.4,91.5,35.6z"/>
	<path class="st0" d="M115.9,16.5h-9.3V9.6h9.3V16.5z M115.8,51.1h-9c0-0.9,0-2.9,0-6s0-5.9,0-8.6c0-2.2,0-4.6,0-7.1s0-5.2-0.1-8.3
		h9c0,2.8,0,5.3-0.1,7.5s0,4.7,0,7.5c0,4.5,0,7.8,0.1,10.2S115.8,50.2,115.8,51.1z"/>
	<path class="st0" d="M144.8,44.9l-0.8,6.4c-0.3,0-0.7,0-1.4,0.1s-1.5,0-2.5,0c-4.7,0-8.3-0.9-10.7-2.7c-2.4-1.8-3.6-4.5-3.6-8.1
		c0-2.3,0-4.4,0-6.3c0-1.9,0-4.2,0-6.7h-4.9v-6.4h5.1v-7.8h8.6v7.8h10v6.4h-10c0,0.4,0,1.3,0,2.6c0,1.3,0,2.3,0,3.1
		c0,0.6,0,1.4,0,2.4c0,0.9,0,1.9,0,2.9c0,2.1,0.6,3.7,1.8,4.8c1.2,1,3.4,1.6,6.6,1.6c0.4,0,0.7,0,1.1,0S144.6,44.9,144.8,44.9z"/>
	<path class="st0" d="M175.1,35.5c0,4.8,0,8.5,0,11.1s0,4.1,0,4.5c-0.3,0-1.6,0.1-3.8,0.3s-4.6,0.2-7.1,0.2c-1.6,0-3.5-0.1-5.6-0.4
		s-3.9-0.7-5.3-1.3c-1.8-0.8-3.2-1.8-4.2-3.1c-1-1.3-1.5-2.8-1.5-4.5c0-1.9,0.5-3.5,1.6-4.8c1.1-1.3,2.8-2.4,5.1-3.3
		c1.5-0.6,3.4-1,5.7-1.4c2.3-0.3,4.3-0.6,6.2-0.7c-0.1-1.1-0.3-1.9-0.8-2.6s-1.3-1.2-2.5-1.6c-0.8-0.3-1.6-0.4-2.6-0.5
		c-0.9-0.1-2.1-0.2-3.4-0.2c-1.2,0-2.2,0-3,0.1c-0.8,0-1.7,0.1-2.7,0.1l0.8-6.5c0.4,0,1,0,1.9-0.1s2.1,0,3.6,0c3.3,0,6,0.3,8.2,0.8
		c2.2,0.6,4,1.5,5.6,2.8c1.4,1.2,2.4,2.6,3,4.3C174.8,30.5,175.1,32.7,175.1,35.5z M166.6,40.9c0-0.6,0-1.4,0-2.2c0-0.8,0-1.7,0-2.6
		c-0.6,0-1.6,0.1-3,0.3s-2.7,0.6-3.9,1c-0.8,0.3-1.5,0.8-2.2,1.5c-0.7,0.7-1,1.5-1,2.5c0,1.1,0.3,2,0.9,2.6s1.3,1.1,2.2,1.5
		c0.7,0.2,1.4,0.4,2.3,0.5s1.7,0.2,2.7,0.2c0.3,0,0.5,0,0.9,0c0.3,0,0.7,0,1.1,0c0-0.3,0-0.8,0-1.8S166.6,42.3,166.6,40.9z"/>
	<path class="st0" d="M192.3,51.1h-9c0-1.4,0-4.2,0-8.6s0-8.9,0-13.7c0-2.7,0-5.8,0-9.3c0-3.5,0-7.3-0.1-11.3h9
		c0,3.3,0,6.7-0.1,10.3s0,6.9,0,10c0,5.1,0,9.6,0,13.4S192.3,48.8,192.3,51.1z"/>
</g>
</svg>
