<?xml version="1.0" encoding="utf-8"?>
<!-- Generator: Adobe Illustrator 23.1.1, SVG Export Plug-In . SVG Version: 6.00 Build 0)  -->
<svg version="1.1" id="Layer_1" xmlns="http://www.w3.org/2000/svg" xmlns:xlink="http://www.w3.org/1999/xlink" x="0px" y="0px"
	 viewBox="0 0 200 60" style="enable-background:new 0 0 200 60;" xml:space="preserve">
<style type="text/css">
	.st0{fill:#ADADAD;}
</style>
<g>
	<path class="st0" d="M8.9,43.4H1.5V2.9h16.2c9,0,14.7,4.4,14.7,12.9c0,8.4-5.6,12.9-14.7,12.9H8.9V43.4z M17.3,22.3
		c5.1,0,7.8-2.4,7.8-6.5c0-4.2-2.7-6.5-7.8-6.5H8.9v13.1h8.4V22.3z"/>
	<path class="st0" d="M48.2,44c-8.5,0-14.5-6.2-14.5-15.4s6-15.4,14.5-15.4s14.5,6.2,14.5,15.4S56.7,44,48.2,44 M48.2,38.1
		c4.6,0,7.5-3.6,7.5-9.5s-2.9-9.5-7.5-9.5s-7.5,3.6-7.5,9.5S43.5,38.1,48.2,38.1"/>
	<rect x="66.5" y="2.9" class="st0" width="7" height="40.5"/>
	<path class="st0" d="M95.4,40.9c-1.8,1.9-4.6,3-7.9,3c-5.8,0-10.1-3.4-10.1-8.8c0-5.5,4.2-8.1,9.9-9.2l8.1-1.7v-0.5
		c0-2.7-1.4-4.4-4.9-4.4c-3.1,0-4.8,1.4-5.6,4.2L78.4,22c1.4-5,5.6-8.7,12.5-8.7c6.7,0,11.2,3.4,11.2,10.2v12.9c0,2.4,0.1,5,0.5,7.1
		h-6.9C95.5,42.5,95.4,41.7,95.4,40.9 M95.3,29.4L89,30.8c-2.8,0.6-4.8,1.6-4.8,4.1c0,2.2,1.6,3.4,4.5,3.4c3.4,0,6.7-1.8,6.7-5.3
		L95.3,29.4L95.3,29.4z"/>
	<path class="st0" d="M124.2,20.7c-0.8-0.1-1.6-0.2-2.4-0.2c-4.3,0-7.4,2.7-7.4,7.3v15.6h-7V13.8h7v4.7c1.3-3.2,4.2-4.9,8-4.9
		c0.6,0,1.2,0,1.8,0.1V20.7z"/>
	<path class="st0" d="M140.2,44c-8.5,0-14.5-6.2-14.5-15.4s6-15.4,14.5-15.4s14.5,6.2,14.5,15.4S148.7,44,140.2,44 M140.2,38.1
		c4.6,0,7.5-3.6,7.5-9.5s-2.9-9.5-7.5-9.5s-7.5,3.6-7.5,9.5S135.5,38.1,140.2,38.1"/>
	<path class="st0" d="M158.5,2.9h7.2v7.2h-7.2V2.9z M165.6,43.4h-7V13.8h7V43.4z"/>
	<path class="st0" d="M191.5,2.9h7v40.5h-7v-3.6c-2,2.9-5,4.2-8.6,4.2c-8.4,0-13.3-7-13.3-15.4s4.9-15.4,13.3-15.4
		c3.6,0,6.6,1.3,8.6,4.2V2.9z M184.3,19.4c-4.8,0-7.6,3.8-7.6,9.2c0,5.5,2.8,9.2,7.6,9.2c4.2,0,7.4-3,7.4-8.3v-1.8
		C191.6,22.3,188.5,19.4,184.3,19.4"/>
	<path class="st0" d="M162.8,55.4h0.8v-0.1c0-1.7,0.7-3.5,2-5.1v-0.6h-3.7v0.7h2.9C163.5,51.9,162.8,53.6,162.8,55.4L162.8,55.4z
		 M159.3,55.5c1.2,0,2-0.7,2-1.8c0-0.8-0.4-1.3-1.2-1.4c0.6-0.1,1.1-0.7,1-1.3c0-0.9-0.7-1.5-1.8-1.5c-1.2,0-1.9,0.7-1.9,1.8
		l0.7,0.1c0-0.9,0.4-1.3,1.2-1.3c0.7,0,1.1,0.4,1.1,1s-0.4,1-1.1,1H159v0.6h0.3c0.9,0,1.3,0.4,1.3,1.1c0,0.7-0.4,1.1-1.2,1.1
		s-1.3-0.5-1.3-1.2l-0.7,0.1C157.3,54.8,158.1,55.5,159.3,55.5 M154.2,52.6c-0.7,0-1.2-0.5-1.2-1.2c0-0.8,0.5-1.3,1.2-1.3
		c0.9,0,1.2,0.7,1.3,1.4C155.3,52.1,154.8,52.6,154.2,52.6 M154.2,49.5c-1.2,0-1.9,0.8-1.9,1.9c0,1.2,0.8,1.9,1.9,1.9
		c0.6,0,1.1-0.2,1.4-0.7c0,1.4-0.4,2.4-1.3,2.4c-0.7,0-1-0.4-1.1-1.1l-0.7,0.2c0.2,1,0.8,1.5,1.9,1.5c1.5,0,2.1-1.4,2.1-3.1
		C156.2,50.5,155.6,49.5,154.2,49.5 M149.9,55.4h0.7v-5.8H150c-0.1,0.6-0.6,1-1.2,0.9h-0.2v0.7h0.3c0.3,0,0.8-0.1,0.9-0.4
		L149.9,55.4L149.9,55.4z M144.4,52.9h-2.2c0-0.8,0.4-1.3,1.2-1.3C144,51.7,144.4,52.1,144.4,52.9L144.4,52.9z M145.2,53
		c0-1.2-0.6-1.9-1.8-1.9s-1.9,0.8-1.9,2.2s0.9,2.2,2.1,2.2c0.5,0,1-0.1,1.4-0.4v-0.7c-0.4,0.3-0.9,0.4-1.4,0.4
		c-0.9,0-1.5-0.4-1.5-1.3h2.9L145.2,53z M139.1,55.5c0.4,0,0.9-0.1,1.3-0.3v-0.7c-0.4,0.2-0.8,0.3-1.2,0.3c-0.9,0-1.5-0.6-1.5-1.5
		s0.5-1.5,1.5-1.5c0.4,0,0.8,0.1,1.2,0.4v-0.7c-0.3-0.2-0.8-0.3-1.3-0.3c-1.3,0-2.1,0.9-2.1,2.2C137,54.6,137.8,55.5,139.1,55.5
		 M132.3,55.4h0.7v-2.2c0-0.9,0.4-1.5,1.1-1.5c0.6,0,0.9,0.4,0.9,1.1v2.5h0.7v-2.6c0-1.1-0.5-1.7-1.4-1.7c-0.7,0-1.1,0.3-1.4,0.9
		v-0.8h-0.7L132.3,55.4L132.3,55.4z M129.8,55.4h0.7v-4.2h-0.7V55.4z M129.7,50.5h0.8v-0.9h-0.8V50.5z M126.7,55.5
		c1,0,1.6-0.4,1.6-1.3c0-0.6-0.3-0.9-1.2-1.1l-0.6-0.2c-0.4-0.1-0.7-0.2-0.7-0.6c0-0.4,0.3-0.6,0.9-0.6c0.5,0,1,0.1,1.5,0.4v-0.7
		c-0.4-0.3-1-0.4-1.4-0.4c-1,0-1.6,0.5-1.6,1.2c0,0.6,0.4,1,1.1,1.1l0.6,0.2c0.4,0.1,0.7,0.2,0.7,0.6c0,0.4-0.4,0.6-0.9,0.6
		s-1.1-0.2-1.5-0.5v0.7C125.6,55.3,126.2,55.5,126.7,55.5 M119.2,54.9c-0.7,0-1.1-0.6-1.1-1.6s0.4-1.6,1.1-1.6s1.1,0.6,1.1,1.5v0.2
		C120.4,54.3,119.9,54.9,119.2,54.9 M119,55.5c0.6,0,1.1-0.3,1.3-0.9v0.8h0.7v-6h-0.7v2.5c-0.3-0.5-0.7-0.7-1.2-0.7
		c-1,0-1.8,0.9-1.8,2.2C117.4,54.6,118,55.5,119,55.5 M115.6,52.9h-2.2c0-0.8,0.4-1.3,1.2-1.3C115.2,51.7,115.6,52.1,115.6,52.9
		L115.6,52.9z M116.3,53c0-1.2-0.6-1.9-1.8-1.9c-1.2,0-1.9,0.8-1.9,2.2s0.9,2.2,2.1,2.2c0.5,0,1-0.1,1.4-0.4v-0.7
		c-0.4,0.3-0.9,0.4-1.4,0.4c-0.9,0-1.5-0.4-1.5-1.3h2.9L116.3,53z M108.6,54.8v0.5h3.2v-0.6h-2.4l2.2-3v-0.5h-3v0.6h2.2L108.6,54.8z
		 M106.6,55.4h0.7v-4.2h-0.7V55.4z M106.5,50.5h0.8v-0.9h-0.8V50.5z M103.9,52.2v-0.9h-0.7v4.2h0.7v-1.8c0-0.5,0-1.1,0.4-1.5
		c0.2-0.2,0.5-0.3,0.9-0.3l0,0v-0.7h-0.1C104.6,51.1,104.1,51.6,103.9,52.2 M99.8,54.9c-0.4,0-0.8-0.2-0.8-0.7s0.4-0.6,1-0.7
		l0.9-0.1v0.2C100.9,54.4,100.5,54.9,99.8,54.9 M99.6,55.5c0.7,0,1.1-0.3,1.3-0.9c0,0.3,0,0.5,0.1,0.8h0.7c-0.1-0.3-0.1-0.8-0.1-1.4
		v-1.1c0-1.1-0.6-1.7-1.7-1.7c-0.5,0-1,0.2-1.4,0.5v0.7c0.4-0.3,0.9-0.5,1.4-0.5c0.7,0,1,0.4,1,1V53l-0.9,0c-0.5,0.1-1,0.2-1.4,0.4
		c-0.2,0.2-0.4,0.5-0.4,0.9C98.3,55,98.8,55.5,99.6,55.5 M96.8,49.4h-0.7v6h0.7V49.4z M92.7,54.9c-0.7,0-1.2-0.5-1.2-1.6
		s0.4-1.6,1.2-1.6c0.7,0,1.2,0.5,1.2,1.6S93.5,54.9,92.7,54.9 M92.7,55.5c1.2,0,1.9-0.8,1.9-2.2s-0.8-2.2-1.9-2.2
		c-1.2,0-1.9,0.8-1.9,2.2S91.5,55.5,92.7,55.5 M87.9,52.3h-1.2v-2.2h1.2c0.8,0,1.3,0.4,1.3,1.1C89.2,51.9,88.7,52.3,87.9,52.3
		 M88,49.5h-2.1v5.9h0.8V53H88c1.2,0,2-0.7,2-1.7C90,50.2,89.3,49.5,88,49.5 M81.6,49.4h-0.7v6h0.7V49.4z M77.3,54.9
		c-0.4,0-0.8-0.2-0.8-0.7s0.4-0.6,1-0.7l0.9-0.1v0.2C78.4,54.4,78.1,54.9,77.3,54.9 M77.2,55.5c0.7,0,1.1-0.3,1.3-0.9
		c0,0.3,0,0.5,0.1,0.8h0.7c-0.1-0.3-0.1-0.8-0.1-1.4v-1.1c0-1.1-0.6-1.7-1.7-1.7c-0.5,0-1,0.2-1.4,0.5v0.7c0.4-0.3,0.9-0.5,1.4-0.5
		c0.7,0,1,0.4,1,1V53l-0.9,0c-0.5,0.1-1,0.2-1.4,0.4c-0.2,0.2-0.4,0.5-0.4,0.9C75.8,55,76.4,55.5,77.2,55.5 M71.1,55.4h0.7v-2.2
		c0-0.9,0.4-1.5,1.1-1.5c0.6,0,0.9,0.4,0.9,1.1v2.5h0.7v-2.6c0-1.1-0.5-1.7-1.4-1.7c-0.7,0-1.1,0.3-1.4,0.9v-0.8H71v4.3H71.1z
		 M68.6,55.4h0.7v-4.2h-0.7V55.4z M68.5,50.5h0.8v-0.9h-0.8V50.5z M65.7,55.2c0.6,0,0.9,0.2,0.9,0.6c0,0.4-0.3,0.7-1.3,0.7
		c-0.7,0-1.3-0.2-1.3-0.7c0-0.2,0.1-0.5,0.4-0.6c0.1,0,0.2,0,0.3,0H65.7z M65.3,53.4c-0.5,0-0.9-0.4-0.9-0.9s0.3-0.9,0.9-0.9
		c0.5,0,0.9,0.4,0.9,0.9C66.2,53.1,65.8,53.4,65.3,53.4 M67.1,51.2c0.1,0,0.2,0,0.3,0v-0.6c-0.1,0-0.2,0-0.3,0c-0.6,0-0.9,0.3-1,0.8
		c-0.3-0.1-0.5-0.2-0.8-0.2c-1,0-1.5,0.6-1.5,1.4c0,0.4,0.1,0.7,0.4,1c-0.3,0.1-0.6,0.4-0.6,0.8c0,0.3,0.1,0.6,0.5,0.7
		c-0.4,0.1-0.7,0.5-0.7,0.9c0,0.6,0.4,1.1,1.9,1.1c1.4,0,2.1-0.5,2.1-1.3c0-0.7-0.5-1.2-1.4-1.2h-1c-0.5,0-0.7-0.2-0.7-0.4
		s0.1-0.3,0.3-0.4c0.2,0.1,0.5,0.2,0.8,0.2c1,0,1.5-0.6,1.5-1.4c0-0.4-0.1-0.7-0.4-1C66.6,51.3,66.8,51.2,67.1,51.2 M61.4,55.4h0.7
		v-4.2h-0.7V55.4z M61.3,50.5h0.8v-0.9h-0.8V50.5z M58.7,52.2v-0.9H58v4.2h0.7v-1.8c0-0.5,0-1.1,0.4-1.5c0.2-0.2,0.5-0.3,0.9-0.3
		l0,0v-0.7h-0.1C59.4,51.1,58.9,51.6,58.7,52.2 M54,54.9c-1.2,0-1.9-0.9-1.9-2.4s0.7-2.4,1.9-2.4s1.9,0.9,1.9,2.4
		C55.8,53.9,55.2,54.9,54,54.9 M54,55.5c1.6,0,2.7-1.2,2.7-3.1c0-1.9-1.1-3.1-2.7-3.1c-1.6,0-2.7,1.2-2.7,3.1S52.3,55.5,54,55.5
		 M47,52.9h-2.2c0-0.8,0.4-1.3,1.2-1.3C46.6,51.7,47,52.1,47,52.9L47,52.9z M47.7,53c0-1.2-0.6-1.9-1.8-1.9S44,51.9,44,53.3
		s0.9,2.2,2.1,2.2c0.5,0,1-0.1,1.4-0.4v-0.7c-0.4,0.3-0.9,0.4-1.4,0.4c-0.9,0-1.5-0.4-1.5-1.3h2.9L47.7,53z M39.4,55.4h0.7v-2.2
		c0-0.9,0.4-1.5,1.1-1.5c0.6,0,0.9,0.4,0.9,1.1v2.5h0.7v-2.6c0-1.1-0.5-1.7-1.4-1.7c-0.6,0-1.1,0.3-1.4,0.9v-2.7h-0.7L39.4,55.4z
		 M38.1,49.5h-4.5v0.7h1.9v5.2h0.8v-5.2h1.9v-0.7H38.1z"/>
</g>
</svg>
