<?xml version="1.0" encoding="utf-8"?>
<!-- Generator: Adobe Illustrator 23.1.1, SVG Export Plug-In . SVG Version: 6.00 Build 0)  -->
<svg version="1.1" id="Capa_1" xmlns="http://www.w3.org/2000/svg" xmlns:xlink="http://www.w3.org/1999/xlink" x="0px" y="0px"
	 viewBox="0 0 200 60" style="enable-background:new 0 0 200 60;" xml:space="preserve">
<style type="text/css">
	.st0{fill-rule:evenodd;clip-rule:evenodd;fill:#ADADAD;}
</style>
<g>
	<path class="st0" d="M157.3,13.1c-1.3,0-2.3,1-2.3,2.3s1,2.3,2.3,2.3s2.3-1,2.3-2.3l0,0C159.6,14.2,158.5,13.1,157.3,13.1z
		 M157.3,17.4c-1.1,0-2-0.9-2-2l0,0c0-1.1,0.9-2,2-2l0,0c1.1,0,2,0.9,2,2S158.4,17.4,157.3,17.4L157.3,17.4z"/>
	<path class="st0" d="M158.5,14.8c0-0.2-0.1-0.4-0.3-0.6c-0.2-0.1-0.4-0.1-0.6-0.1h-1.1v2.6h0.3v-1.2h0.6l0.7,1.2h0.4l-0.8-1.2
		C158.1,15.5,158.5,15.3,158.5,14.8L158.5,14.8z M157.2,15.3h-0.5v-0.9h0.7c0.3,0,0.7,0,0.7,0.4C158.1,15.3,157.6,15.3,157.2,15.3z
		 M80.8,53.1l-14.9-7.3c-0.3-0.2-0.5-0.6-0.5-0.9v-4c0-0.3,0.1-0.6,0.4-0.8c1.6-1,6.5-3.7,11.6-11.2c6.8-9.9,0-18.2-10.6-16
		c-9.4,2-19,7.1-23.2,9.9c-3.7,2.5-3.2,5.5-3.3,8.1c0.2,1.1,0.6,1,1.5-0.1c6.9-6.4,17.4-11.2,19.3-12c2-0.8,6.6-3.6,12-2.4
		c5.2,1.2,4,8.3,2.4,11.3c-1.7,3.3-6.7,8.1-9,9.3c-0.9,0.4-1.2,0-1.2-0.7l0.4-15.5c0-1-0.5-1.5-1.5-1.1l-1.6,0.8
		c-1.1,0.7-1.1,0.9-1.2,1.7l-0.2,17.9c0,0.4-0.2,0.7-0.4,0.8l-5.4,3c-1.2,0.6-0.9,1.5,0,1.9l4.3,2.1c1,0.4,1.3,0.7,1.3,1.7l-0.2,8.6
		c3.9-0.8,4.1-2.6,4.2-3.9v-2.6c0.1-0.6,0.5-0.8,1-0.7l12.6,6.1c1.1,0.5,1.7,0.3,2.6-1.1C82.2,54.6,82.3,53.8,80.8,53.1L80.8,53.1z
		 M102.7,31.3c-1.7,1-2.6,2.9-1.9,4.1c0.7,1.2,2.8,1.4,4.5,0.4s2.5-2.8,1.8-4C106.5,30.5,104.5,30.3,102.7,31.3z"/>
	<path class="st0" d="M96.3,32.6c-0.5,0.6-1.4,2.3-1.9,3.4c-0.5,1.1-1.6,3.5-2.7,3.5s-1.3-2.8-1.3-3.9c0-1-0.6-1.2-0.9-1.1
		s-1.2,0.4-1.4,1.4c-0.3,1.1-1.6,5.8-3.2,5.8c-1,0-1.7-2.8-1.7-3.7c-0.1-0.9-0.5-1.6-1.3-1.6c-0.6,0-1.4,0.3-1.7,0.7s-0.4,0.9-2,0.6
		c-1.5-0.1-2.9,0.7-4.7,3.7c-1.1,1.8-1.9,5.1-0.3,6.4c1.5,1.2,4.1-1,4.9-1.9s1.4-1.6,1.7-2.1c0.3-0.5,0.6-0.5,0.8,0.1
		c0.2,0.5,1,2.5,2.2,2.5c1.1-0.1,2.6-0.9,4.3-3.9c0.3-0.6,0.8-0.6,0.9-0.1s0.8,2.2,1.9,2.2s2.3-1.7,2.9-2.7c0.4-0.7,1-0.4,1,0.3
		s-0.3,16.5-0.3,16.5c0,0.7,0.3,0.9,0.8,0.9h2.2c0.4,0,0.8-0.4,0.8-0.9l0.5-25.6C97.6,32.3,96.9,31.9,96.3,32.6L96.3,32.6z
		 M78.8,42.7c-0.5,0.8-1.7,2.8-2.8,2.5c-0.6-0.3,0.2-2.4,0.6-3.1c0.6-1.1,2.2-2.8,3-2.4C80.3,40.1,79.3,41.9,78.8,42.7L78.8,42.7z
		 M157.2,26.9c-0.2,0.2-0.5,0.5-1.3,0.2c-1.3-0.5-1.4-2.9-2.1-5.1c-0.6-2-2-1.9-2.6-1l-1.6,2.5c-0.3,0.5-0.9,1.7-1.5,1.7
		c-0.7,0-0.4-1-0.4-2.1c0-0.7-0.4-1.6-1.1-1.6c-0.8,0-1.7,1.3-2.4,2.7c-0.5,1-1.7,4.9-3.2,4.9c-1,0-1.1-2.8-1.1-3.7
		c-0.1-0.9-0.4-2-1.2-2c-0.6,0-1,0.3-1.3,0.7c-0.3,0.4-0.4,0.7-1.4,0.5c-1.5-0.1-4,1.3-5.7,4.3c-1.1,1.8-2.3,5.5-0.7,6.8
		c1.5,1.2,4.2-1.6,4.9-2.6c0.8-0.9,1.4-1.6,1.7-2.1s0.6-0.5,0.8,0.1c0.2,0.5,1,2.5,2.2,2.5c1.1-0.1,2.1-0.3,3.8-3.3
		c0.3-0.6,0.9-0.7,1-0.2s0.2,1.9,1.3,1.9c1.9,0,4-4.5,4.5-5.6c0.5-0.9,1.2-0.7,1.5,0c0.4,1,0.7,4.2,2.7,4.2s3.4-2.1,3.8-2.8
		C158.2,27.1,157.9,26.3,157.2,26.9L157.2,26.9z M135.4,30c-0.5,0.8-1.5,2.5-2.6,2.1c-0.6-0.3,0.1-1.8,0.5-2.5
		c0.6-1.1,2.2-2.8,3-2.4C137,27.6,135.8,29.2,135.4,30L135.4,30z M125.4,27.3c0,0-4.4-3.2-5.6-4.6c-0.8-1-0.3-1.7,0.3-2.1
		c3.1-2.1,7.9-5.2,9.8-10.2c1.8-4.8-1-8.9-3.1-9.6C124-0.1,118,1.7,115,7.3c-1.9,3.6-2.8,4.8-3.1,14.6c0,1.9-0.1,4-0.1,6.3
		s-0.3,8.6-0.5,9.8c-1,2.8,2,1.1,3.3,0.1c1.3-1.1,1.2-2.7,1.2-3.4c0-0.9,0.1-16.3,0.5-19.8c0.3-2.1,0.6-6.1,2.9-9.6
		c2.3-3.4,4.6-2.1,5.2-1.5s1.5,2,1,4.9c-0.7,4.6-6,9.5-7.3,11.1c-1.3,1.5-1,2.9-0.3,4c0.5,0.8,1.9,2.3,3.3,3.7
		c1.4,1.4,1.2,2.6,1,3.6c-0.7,2.8-8.2,10.3-8.2,10.3c-1.6,1.7,0.1,4.5,0.6,5.4c0.6,0.9,1.3,0.6,1.7-0.2c1.9-3.4,9.8-11.8,9.8-11.8
		C128.5,31.7,127.5,28.9,125.4,27.3L125.4,27.3z"/>
</g>
</svg>
