<?xml version="1.0" encoding="utf-8"?>
<!-- Generator: Adobe Illustrator 23.1.1, SVG Export Plug-In . SVG Version: 6.00 Build 0)  -->
<svg version="1.1" id="Capa_1" xmlns="http://www.w3.org/2000/svg" xmlns:xlink="http://www.w3.org/1999/xlink" x="0px" y="0px"
	 viewBox="0 0 200 60" style="enable-background:new 0 0 200 60;" xml:space="preserve">
<style type="text/css">
	.st0{fill-rule:evenodd;clip-rule:evenodd;fill:#FFFFFF;fill-opacity:0;}
	.st1{fill-rule:evenodd;clip-rule:evenodd;fill:#ADADAD;}
</style>
<path class="st0" d="M396.5,326.5H1350V1280H396.5V326.5z"/>
<path class="st1" d="M15.7,24.6c2,0,3.4,0.3,4.1,0.7c0.6,0.5,0.9,1.6,0.9,3.1v0.9h-3.1v-2h-13v8.4H1.4V24.6H15.7L15.7,24.6z
	 M27.1,24.4V33h15.1v-8.6h3.3v11.4H28.2c-2.1,0-3.5-0.4-4-1.3c-0.3-0.5-0.5-1.8-0.5-3.6v-6.5H27.1z M52.5,24.4h16.6v2.7H52v1.4h12.9
	c1.7,0,2.9,0.2,3.6,0.6c0.5,0.3,0.7,0.6,0.8,1.1c0.2,0.4,0.3,1.2,0.3,2.2s-0.1,1.8-0.3,2.2C69,35,68.5,35.4,68,35.5l-2.3,0.3H48.9
	v-2.9h17.5v-1.6H53c-1.7,0-2.8-0.3-3.3-0.7c-0.6-0.4-0.9-1.3-0.9-2.7c0-1.4,0.3-2.3,0.8-2.7C50.1,24.6,51.1,24.4,52.5,24.4z
	 M76.4,24.4h17.8v2.7H76.4v5.7h17.8v3H77.4c-1.6,0-2.8-0.3-3.4-0.8c-0.6-0.6-0.9-1.6-0.9-3.1v-4.8h-2.3v-2.7h2.3v-4.8h3.3V24.4
	L76.4,24.4L76.4,24.4z M99.3,24.4l7.8,8.8l7-8.8h3.8l-12.3,16h-3.8l3.5-4.6L95,24.4H99.3L99.3,24.4z M117.4,32.8h3.7v3h-3.7V32.8z
	 M127.5,24.4h15.9v2.7h-16.3v5.8h16.5v2.8h-16.1c-1.3,0-2.4-0.3-3-0.8c-0.6-0.6-0.9-1.6-0.9-2.9v-4.4c0-1.2,0.3-2.1,0.9-2.6
	C125.1,24.6,126.1,24.4,127.5,24.4L127.5,24.4z M164.1,24.4h-14.3c-1.1,0-2,0.3-2.5,0.8c-0.6,0.5-0.8,1.4-0.8,2.6v4.8
	c0,1.2,0.3,2.1,1,2.6c0.6,0.4,1.6,0.7,3.1,0.7H165c1.3,0,2.1-0.3,2.6-0.7c0.5-0.5,0.8-1.4,0.8-2.6v-4.8c0-1.3-0.4-2.2-0.9-2.7
	C166.8,24.6,165.7,24.4,164.1,24.4L164.1,24.4z M149.8,27.4H165v5.8h-15.2V27.4z M195.3,24.4c2.2,0,3.3,0.9,3.3,2.7v8.7h-3.3v-8.7
	H187v8.7h-3.2v-8.7h-8.5v8.7H172V24.4H195.3L195.3,24.4z"/>
</svg>
