<?xml version="1.0" encoding="utf-8"?>
<!-- Generator: Adobe Illustrator 23.1.1, SVG Export Plug-In . SVG Version: 6.00 Build 0)  -->
<svg version="1.1" id="Capa_1" xmlns="http://www.w3.org/2000/svg" xmlns:xlink="http://www.w3.org/1999/xlink" x="0px" y="0px"
	 viewBox="0 0 200 60" style="enable-background:new 0 0 200 60;" xml:space="preserve">
<style type="text/css">
	.st0{fill:#ADADAD;}
</style>
<g>
	<path class="st0" d="M35,56.5H24.8L2.9,2.7h12.8l11.1,30.2l2.9,8.4l2.9-8.4L43.8,2.7h12.8L35,56.5z"/>
	<path class="st0" d="M105.1,2.7v32.8c0,14.4-8.2,21.8-22.3,21.8s-22.3-7.4-22.3-21.8V2.7h11.9v31.1c0,7.4,2.2,11.6,10.4,11.6
		c8.2,0,10.4-4.2,10.4-11.6V2.7H105.1z"/>
	<path class="st0" d="M113.5,2.7h11.9v43h19.3v10.8h-31.1C113.5,56.5,113.5,2.7,113.5,2.7z"/>
	<path class="st0" d="M164,56.5h-11.9V2.7H164v24l17-24h15.3l-20.7,26.9l21.5,26.9h-16l-17-24v24H164z"/>
</g>
</svg>
